<?xml version="1.0" encoding="iso-8859-1"?>
<!-- Generator: Adobe Illustrator 19.0.0, SVG Export Plug-In . SVG Version: 6.00 Build 0)  -->
<svg version="1.1" id="Layer_1" xmlns="http://www.w3.org/2000/svg" xmlns:xlink="http://www.w3.org/1999/xlink" x="0px" y="0px"
	 viewBox="0 0 512 512" style="enable-background:new 0 0 512 512;" xml:space="preserve">
<g>
	<g>
		<g>
			<path d="M499.786,430.167h-18.234V221.001c5.233-6.006,8.724-13.562,9.681-21.883c5.163-3.291,8.605-9.054,8.605-15.618v-24.89
				c0-10.213-8.31-18.523-18.523-18.523H321.091c4.949-3.571,9.576-7.537,13.846-11.844h26.572
				c15.777,0,28.611-12.834,28.611-28.611c0-14.589-10.977-26.653-25.106-28.388c0.131-0.676,0.271-1.35,0.39-2.03
				c0.92-5.28,0.096-13.069-4.971-19.095c-3.076-3.658-8.908-8.017-19.226-8.017H170.792c-10.318,0-16.15,4.36-19.226,8.017
				c-5.068,6.027-5.89,13.815-4.971,19.095c5.044,28.967,21.193,54.189,44.314,70.874H30.683c-10.213,0-18.523,8.31-18.523,18.523
				v24.89c0,6.564,3.441,12.327,8.604,15.617c0.957,8.322,4.449,15.879,9.683,21.886v209.163H12.214
				C5.479,430.167,0,435.646,0,442.381v15.302c0,6.735,5.479,12.215,12.214,12.215h487.573c6.735,0,12.214-5.48,12.214-12.215
				v-15.302C512,435.646,506.521,430.167,499.786,430.167z M360.795,86.898h0.714c7.021,0,12.733,5.713,12.733,12.733
				s-5.713,12.733-12.733,12.733h-13.53C353.289,104.523,357.615,95.979,360.795,86.898z M162.237,66.488
				c-0.255-1.462-0.07-4.307,1.482-6.153c1.316-1.565,3.695-2.358,7.074-2.358h170.415c3.378,0,5.757,0.794,7.074,2.358
				c1.552,1.846,1.737,4.69,1.482,6.153c-5.959,34.226-30.018,62.338-62.885,73.598h-61.755
				C192.257,128.826,168.196,100.713,162.237,66.488z M28.037,183.5v-24.89c0-1.434,1.212-2.646,2.646-2.646h450.632
				c1.434,0,2.646,1.212,2.646,2.646v24.89c0,1.434-1.212,2.646-2.646,2.646H30.683C29.249,186.146,28.037,184.934,28.037,183.5z
				 M420.014,258.365H276.898c-4.384,0-7.939,3.554-7.939,7.939v163.864H46.325V232.175c4.537,1.763,9.462,2.742,14.613,2.742
				c13.309,0,25.135-6.464,32.51-16.415c7.375,9.951,19.202,16.415,32.51,16.415c13.309,0,25.135-6.464,32.51-16.415
				c7.375,9.951,19.202,16.415,32.51,16.415s25.135-6.464,32.51-16.415c7.375,9.951,19.202,16.415,32.51,16.415
				c13.308,0,25.135-6.464,32.51-16.415c7.375,9.951,19.202,16.415,32.51,16.415c13.309,0,25.135-6.464,32.51-16.415
				c7.375,9.951,19.202,16.415,32.51,16.415c13.309,0,25.135-6.464,32.51-16.415c7.375,9.951,19.202,16.415,32.51,16.415
				c5.153,0,10.079-0.979,14.615-2.744v197.992h-37.722V266.303C427.953,261.919,424.4,258.365,420.014,258.365z M412.076,274.242
				v155.925H284.837V274.242H412.076z M37.559,202.023h46.758c-3.196,9.863-12.465,17.018-23.379,17.018
				C50.025,219.04,40.754,211.886,37.559,202.023z M102.58,202.023h46.757c-3.195,9.863-12.465,17.018-23.378,17.018
				C115.045,219.04,105.775,211.886,102.58,202.023z M167.601,202.023h46.757c-3.196,9.863-12.465,17.018-23.379,17.018
				C180.066,219.04,170.795,211.886,167.601,202.023z M232.621,202.023h46.757c-3.194,9.863-12.465,17.018-23.379,17.018
				C245.086,219.04,235.815,211.886,232.621,202.023z M297.641,202.023h46.757c-3.196,9.863-12.465,17.018-23.379,17.018
				C310.107,219.04,300.835,211.886,297.641,202.023z M362.661,202.023h46.757c-3.196,9.863-12.465,17.018-23.379,17.018
				C375.125,219.04,365.856,211.886,362.661,202.023z M451.06,219.04c-10.914,0-20.184-7.154-23.379-17.018h46.757
				C471.243,211.886,461.973,219.04,451.06,219.04z M248.879,454.022H15.877v-7.978h233.002V454.022z M432.15,454.022H264.756
				v-7.978H432.15V454.022z M496.123,454.022h-48.096v-7.978h48.096V454.022z"/>
			<circle cx="310.046" cy="390.976" r="7.912"/>
			<rect x="326.483" y="314.447" width="43.946" height="15.877"/>
			<path d="M242.11,258.365H73.172c-4.384,0-7.939,3.554-7.939,7.939v116.759c0,4.384,3.554,7.939,7.939,7.939h168.937
				c4.384,0,7.939-3.554,7.939-7.939V266.303C250.049,261.919,246.494,258.365,242.11,258.365z M234.172,375.125h-15.588v-15.244
				c0-4.384-3.554-7.939-7.939-7.939s-7.939,3.554-7.939,7.939v15.243h-90.129v-15.243c0-4.384-3.554-7.939-7.939-7.939
				s-7.939,3.554-7.939,7.939v15.243H81.111V274.241h68.591v12.525h-14.189c-3.537,0-6.648,2.34-7.628,5.74l-9.709,33.694
				c-0.691,2.396-0.215,4.979,1.285,6.971c1.5,1.993,3.849,3.165,6.343,3.165h63.674c2.495,0,4.844-1.172,6.343-3.165
				s1.976-4.575,1.285-6.971l-9.709-33.694c-0.979-3.4-4.09-5.74-7.627-5.74H165.58v-12.525h68.591V375.125z M173.794,302.644
				l5.135,17.817h-42.576l5.135-17.817H173.794z"/>
			<path d="M302.133,367.819h92.645c4.384,0,7.939-3.554,7.939-7.939v-66.525c0-4.384-3.554-7.939-7.939-7.939h-92.645
				c-4.384,0-7.939,3.554-7.939,7.939v66.525C294.195,364.266,297.749,367.819,302.133,367.819z M310.072,301.295h76.768v50.648
				h-76.768V301.295z"/>
		</g>
	</g>
</g>
<g>
</g>
<g>
</g>
<g>
</g>
<g>
</g>
<g>
</g>
<g>
</g>
<g>
</g>
<g>
</g>
<g>
</g>
<g>
</g>
<g>
</g>
<g>
</g>
<g>
</g>
<g>
</g>
<g>
</g>
</svg>
