<?xml version="1.0" encoding="iso-8859-1"?>
<!-- Generator: Adobe Illustrator 19.0.0, SVG Export Plug-In . SVG Version: 6.00 Build 0)  -->
<svg version="1.1" id="Capa_1" xmlns="http://www.w3.org/2000/svg" xmlns:xlink="http://www.w3.org/1999/xlink" x="0px" y="0px"
	 viewBox="0 0 64 64" style="enable-background:new 0 0 64 64;" xml:space="preserve">
<g>
	<path d="M63,4H33c-0.276,0-0.526,0.112-0.707,0.293L21.567,15.019C13.804,15.219,8,20.725,8,28v5.055C3.506,33.554,0,37.375,0,42v1
		v6c0,2.757,2.243,5,5,5h9.08c0.488,3.387,3.401,6,6.92,6c3.86,0,7-3.14,7-7s-3.14-7-7-7c-3.52,0-6.432,2.613-6.92,6H5
		c-1.302,0-2.402-0.839-2.816-2H4c2.206,0,4-1.794,4-4s-1.794-4-4-4H2c0-3.86,3.14-7,7-7c0.552,0,1-0.448,1-1v-6
		c0-6.271,5.159-11,12-11h10v2v22v11h-4v1v1h5h11.08c0.488,3.387,3.401,6,6.92,6c3.519,0,6.432-2.613,6.92-6H59c2.757,0,5-2.243,5-5
		v-8V19v-3V5C64,4.448,63.552,4,63,4z M21,48c2.757,0,5,2.243,5,5s-2.243,5-5,5s-5-2.243-5-5S18.243,48,21,48z M4,44
		c1.103,0,2,0.897,2,2s-0.897,2-2,2H2v-4H4z M62,15h-8V6h8V15z M34,35h28v5H34V35z M34,33v-9.541C35.063,24.414,36.462,25,38,25
		c2.086,0,3.924-1.071,5-2.69c1.075,1.619,2.914,2.69,5,2.69s3.924-1.071,5-2.69c1.075,1.619,2.914,2.69,5,2.69
		c1.537,0,2.937-0.586,4-1.541V33H34z M34,17h8v2c0,2.206-1.794,4-4,4s-4-1.794-4-4V17z M52,19c0,2.206-1.794,4-4,4s-4-1.794-4-4v-2
		h8V19z M52,15h-8V6h8V15z M62,19c0,2.206-1.794,4-4,4s-4-1.794-4-4v-2h8V19z M34,6h8v9h-8V6z M24.414,15L32,7.414V15H24.414z
		 M51,58c-2.757,0-5-2.243-5-5s2.243-5,5-5s5,2.243,5,5S53.757,58,51,58z M62,49c0,1.654-1.346,3-3,3h-1.08
		c-0.488-3.387-3.401-6-6.92-6c-3.52,0-6.432,2.613-6.92,6H34V42h28V49z"/>
	<path d="M29,29v-9c0-0.552-0.448-1-1-1h-6c-5.514,0-10,4.486-10,10c0,0.552,0.448,1,1,1h15C28.552,30,29,29.552,29,29z M27,28
		H14.062c0.494-3.941,3.866-7,7.938-7h5V28z"/>
	<rect x="24" y="32" width="4" height="2"/>
</g>
<g>
</g>
<g>
</g>
<g>
</g>
<g>
</g>
<g>
</g>
<g>
</g>
<g>
</g>
<g>
</g>
<g>
</g>
<g>
</g>
<g>
</g>
<g>
</g>
<g>
</g>
<g>
</g>
<g>
</g>
</svg>
