<?xml version="1.0" encoding="iso-8859-1"?>
<!-- Generator: Adobe Illustrator 19.0.0, SVG Export Plug-In . SVG Version: 6.00 Build 0)  -->
<svg version="1.1" id="Layer_1" xmlns="http://www.w3.org/2000/svg" xmlns:xlink="http://www.w3.org/1999/xlink" x="0px" y="0px"
	 viewBox="0 0 512 512" style="enable-background:new 0 0 512 512;" xml:space="preserve">
<g>
	<g>
		<path d="M339.39,256.602c9.082,0,16.445-7.363,16.445-16.445v-8.91h15.218c23.663,0,42.915-19.252,42.915-42.915v-44.67h41.989
			c9.082,0,16.445-7.363,16.445-16.445V59.17C472.401,26.543,445.858,0,413.232,0H98.768c-32.627,0-59.17,26.543-59.17,59.17
			v436.385c0,9.082,7.363,16.445,16.445,16.445h317.48c50.261,0,91.151-40.89,91.151-91.151c0-9.082-7.363-16.445-16.445-16.445
			h-84.501c28.991-4.026,52.401-25.691,59.024-53.779h12.453c18.452,0,33.463-15.011,33.463-33.463v-9.979
			c0-18.452-15.011-33.463-33.463-33.463h-26.998h-140.3c-9.082,0-16.446,7.363-16.446,16.445v44.239
			c0,35.665,26.553,65.227,60.924,70.001h-97.586V143.66h50.016v44.67c0,23.663,19.252,42.915,42.915,42.915h15.216v8.91
			C322.945,249.239,330.308,256.602,339.39,256.602z M284.351,334.403v-27.794H391.76v27.794c0,20.843-16.958,37.8-37.8,37.8
			h-31.809C301.309,372.204,284.351,355.246,284.351,334.403z M429.419,437.296c-7.115,24.141-29.482,41.814-55.896,41.814H72.489
			V143.652c0.175,0.005,0.351,0.008,0.527,0.008h108.891v274.614c0,0.434,0.032,0.862,0.065,1.288
			c-0.033,0.427-0.065,0.853-0.065,1.288c0,9.082,7.363,16.445,16.445,16.445H429.419z M73.016,110.769
			c-0.177,0-0.352,0.002-0.527,0.008V59.17c0-14.491,11.788-26.279,26.279-26.279h314.465c14.491,0,26.279,11.788,26.279,26.279
			v51.599H73.016z M307.728,198.354c-5.527,0-10.023-4.496-10.023-10.024v-44.67h83.372v44.67c0,5.528-4.497,10.024-10.024,10.024
			H307.728z"/>
	</g>
</g>
<g>
</g>
<g>
</g>
<g>
</g>
<g>
</g>
<g>
</g>
<g>
</g>
<g>
</g>
<g>
</g>
<g>
</g>
<g>
</g>
<g>
</g>
<g>
</g>
<g>
</g>
<g>
</g>
<g>
</g>
</svg>
